<svg version="1.0" xmlns="http://www.w3.org/2000/svg" width="346.667" height="346.667" viewBox="0 0 260 260"><path d="M36.1 43.7c-8.1 4.8-7.5-1.4-7.6 91.5l-.1 82.8H60V114.5l3.5 5.8c1.9 3.2 3.5 6 3.5 6.3 0 .2 1.1 2.1 2.3 4.2 1.3 2 3.8 6.2 5.4 9.2 1.7 3 8.4 14.7 14.8 26 6.5 11.3 13.1 23 14.8 26 1.7 3 4.8 8.4 6.9 11.9 2.1 3.4 3.8 6.5 3.8 6.8 0 1.5 4.6 6.5 7.1 7.9 3.7 1.9 11.8 2 15 .2 4-2.2 5.3-4.2 18-26.6 6.8-11.9 16.5-29.1 21.7-38.2 5.2-9.1 10.6-18.5 12-21 4.5-8 10.3-18 10.5-18 .1 0 .2 23.2.1 51.5V218H231v-3.3c.1-1.7.1-38.9.1-82.4 0-87 .3-82.3-6.1-87.6-6.2-5.3-15.6-4.4-21.6 2-1.9 2-3.4 3.9-3.4 4.3 0 .4-8.2 14.8-18.1 32.1-10 17.3-19 33-20.1 34.9-1.1 1.9-4.7 8.1-7.9 13.6-6.1 10.7-7.8 13.6-17.4 30.7-3.3 5.9-6.4 10.5-6.9 10.4-.7-.2-24.1-40.3-48.8-83.6C65 61.3 58.4 50 56.8 47.7c-4.5-6.3-13.8-8.2-20.7-4z"/></svg>